<svg width="24" height="24" viewBox="0 0 24 24" fill="none" xmlns="http://www.w3.org/2000/svg">
<path fill-rule="evenodd" clip-rule="evenodd" d="M8.48223 3H15.5178C18.5455 3 21 5.45448 21 8.48223V15.5178C21 18.5455 18.5455 21 15.5178 21H8.48223C5.45448 21 3 18.5455 3 15.5178V8.48223C3 5.45448 5.45448 3 8.48223 3ZM19.6294 8.48223C19.6244 6.2135 17.7865 4.37558 15.5178 4.37056H8.48223C6.2135 4.37558 4.37558 6.2135 4.37056 8.48223V15.5178C4.37558 17.7865 6.2135 19.6244 8.48223 19.6294H15.5178C17.7865 19.6244 19.6244 17.7865 19.6294 15.5178V8.48223Z" fill="#F5F5F5"/>
<path fill-rule="evenodd" clip-rule="evenodd" d="M8.07104 12C8.07607 9.83217 9.83217 8.07607 12 8.07104C14.1678 8.07607 15.9239 9.83217 15.9289 12C15.9289 14.1699 14.1699 15.9289 12 15.9289C9.83009 15.9289 8.07104 14.1699 8.07104 12ZM14.5584 12C14.5584 10.587 13.4129 9.4416 12 9.4416C10.5891 9.44662 9.44662 10.5891 9.4416 12C9.4416 13.4129 10.587 14.5584 12 14.5584C13.4129 14.5584 14.5584 13.4129 14.5584 12Z" fill="#F5F5F5"/>
<path d="M15 7C15 6.44772 15.4477 6 16 6C16.5523 6 17 6.44772 17 7C17 7.55228 16.5523 8 16 8C15.4477 8 15 7.55228 15 7Z" fill="#F5F5F5"/>
</svg>
