<svg width="24" height="24" viewBox="0 0 24 24" fill="none" xmlns="http://www.w3.org/2000/svg">
<rect width="24" height="24" rx="12" fill="#3ACE01"/>
<path fill-rule="evenodd" clip-rule="evenodd" d="M12.0003 5.39362C15.9301 5.39362 19.1158 7.94685 19.1158 11.0964C19.1158 12.1966 18.7268 13.2237 18.0535 14.0949C18.0202 14.1445 17.9766 14.1992 17.9218 14.2598L17.9176 14.2643C17.6876 14.5397 17.4286 14.7983 17.1438 15.037C15.1761 16.8574 11.9373 19.0246 11.5099 18.6903C11.1382 18.3996 12.1219 16.978 10.987 16.7414C10.9079 16.7323 10.8289 16.7226 10.7506 16.7115L10.7491 16.7114V16.7113C7.41604 16.2373 4.88489 13.9038 4.88489 11.0964C4.88479 7.94685 8.07053 5.39362 12.0003 5.39362V5.39362Z" fill="white"/>
<path fill-rule="evenodd" clip-rule="evenodd" d="M7.87213 12.9151H9.30721C9.51134 12.9151 9.6783 12.748 9.6783 12.5437V12.5127C9.6783 12.3084 9.51134 12.1413 9.30721 12.1413H8.27418V9.78884C8.27418 9.58453 8.10722 9.41742 7.90309 9.41742H7.87213C7.668 9.41742 7.50104 9.58453 7.50104 9.78884V12.5436C7.50104 12.748 7.668 12.9151 7.87213 12.9151V12.9151ZM16.7646 11.1884V11.1574C16.7646 10.9531 16.5976 10.786 16.3935 10.786H15.3605V10.1979H16.3935C16.5976 10.1979 16.7646 10.0308 16.7646 9.82646V9.79547C16.7646 9.59116 16.5976 9.42405 16.3935 9.42405H14.9584C14.7543 9.42405 14.5873 9.59116 14.5873 9.79547V12.5502C14.5873 12.7546 14.7543 12.9217 14.9584 12.9217H16.3935C16.5976 12.9217 16.7646 12.7546 16.7646 12.5502V12.5193C16.7646 12.3149 16.5976 12.1478 16.3935 12.1478H15.3605V11.5597H16.3935C16.5976 11.5598 16.7646 11.3927 16.7646 11.1884V11.1884ZM14.0048 12.8044L14.0049 12.8042C14.0736 12.7349 14.1121 12.6413 14.1122 12.5437V9.78894C14.1122 9.58463 13.9452 9.41752 13.741 9.41752H13.7101C13.506 9.41752 13.339 9.58463 13.339 9.78894V11.406L11.9977 9.60534C11.9336 9.49337 11.8129 9.41752 11.6755 9.41752H11.6445C11.4404 9.41752 11.2734 9.58463 11.2734 9.78894V12.5437C11.2734 12.748 11.4403 12.9152 11.6445 12.9152H11.6755C11.8796 12.9152 12.0465 12.748 12.0465 12.5437V10.8964L13.3975 12.7433C13.4058 12.7562 13.4149 12.7686 13.4247 12.7805L13.4248 12.7806C13.4619 12.8312 13.5127 12.866 13.5693 12.8872C13.6127 12.9052 13.6603 12.9151 13.71 12.9151H13.741C13.8015 12.9152 13.861 12.9003 13.9144 12.8718C13.9515 12.8541 13.9828 12.8313 14.0048 12.8044V12.8044ZM10.3489 12.9151H10.3799C10.584 12.9151 10.751 12.748 10.751 12.5437V9.78889C10.751 9.58458 10.584 9.41747 10.3799 9.41747H10.3489C10.1448 9.41747 9.97777 9.58458 9.97777 9.78889V12.5437C9.97777 12.748 10.1448 12.9151 10.3489 12.9151Z" fill="#3ACE01"/>
</svg>
