<svg width="8" height="14" viewBox="0 0 8 14" fill="none" xmlns="http://www.w3.org/2000/svg">
<path d="M3.13375 0.230548L0.224751 3.19846C-0.0752493 3.5052 -0.0752492 3.99884 0.226751 4.30456C0.528751 4.60928 1.01575 4.60826 1.31575 4.30253L2.90875 2.6774L2.90875 12.9858C2.90875 13.4175 3.25375 13.7679 3.67975 13.7679C4.10475 13.7679 4.44875 13.4175 4.44875 12.9858L4.44875 2.6774L6.04275 4.30253C6.34275 4.60826 6.82975 4.60928 7.13175 4.30456C7.28275 4.15119 7.35875 3.9511 7.35875 3.74999C7.35875 3.55091 7.28275 3.35081 7.13375 3.19846L4.22475 0.230548C4.07975 0.0832699 3.88375 -1.80735e-05 3.67975 -1.80759e-05C3.47475 -1.80784e-05 3.27875 0.0832698 3.13375 0.230548Z" fill="#F5F5F5"/>
</svg>
