<svg width="24" height="24" viewBox="0 0 24 24" fill="none" xmlns="http://www.w3.org/2000/svg">
<path d="M13.9526 10.1837H14.8607C14.9779 10.1837 15.0902 10.1365 15.1722 10.0528C15.2543 9.96906 15.2991 9.85584 15.2967 9.73866V8.28558C15.2975 8.05833 15.1235 7.86859 14.8971 7.84966C14.8971 7.84966 14.2523 7.79517 13.4622 7.79517C11.5187 7.79517 10.447 8.94855 10.447 11.0373V12.6448H8.65792C8.54155 12.6423 8.42921 12.6874 8.34691 12.7697C8.26461 12.852 8.21949 12.9644 8.22199 13.0807V14.4067C8.21949 14.523 8.26461 14.6354 8.34691 14.7177C8.42921 14.8 8.54155 14.8451 8.65792 14.8426H10.4198V19.9829H13.0716V14.8426H14.67C14.8895 14.8404 15.0746 14.6784 15.1059 14.4612L15.2694 13.1352C15.2861 13.0097 15.2461 12.8833 15.1604 12.7901C15.0773 12.6971 14.9582 12.6442 14.8335 12.6448H13.0716V11.0918C13.0714 10.6007 13.4617 10.1984 13.9526 10.1837Z" fill="#F5F5F5"/>
<path fill-rule="evenodd" clip-rule="evenodd" d="M3 12C3 7.02944 7.02944 3 12 3C14.3869 3 16.6761 3.94821 18.364 5.63604C20.0518 7.32387 21 9.61305 21 12C21 16.9706 16.9706 21 12 21C7.02944 21 3 16.9706 3 12ZM19.6377 12C19.6377 7.78179 16.2182 4.36226 12 4.36226C7.78594 4.37225 4.37225 7.78594 4.36226 12C4.36226 16.2182 7.78179 19.6377 12 19.6377C16.2182 19.6377 19.6377 16.2182 19.6377 12Z" fill="#F5F5F5"/>
</svg>
