<svg width="21" height="20" viewBox="0 0 21 20" fill="none" xmlns="http://www.w3.org/2000/svg">
<path fill-rule="evenodd" clip-rule="evenodd" d="M10.1222 0.645103C10.5364 0.645103 10.8722 0.98089 10.8722 1.3951V11.6205L12.5068 9.97916C12.7991 9.68567 13.274 9.68469 13.5674 9.97699C13.8609 10.2693 13.8619 10.7442 13.5696 11.0376L10.6536 13.9656C10.5129 14.107 10.3217 14.1864 10.1222 14.1864C9.92276 14.1864 9.73153 14.107 9.59079 13.9656L6.67479 11.0376C6.3825 10.7442 6.38348 10.2693 6.67697 9.97699C6.97046 9.68469 7.44534 9.68567 7.73763 9.97916L9.37221 11.6205V1.3951C9.37221 0.98089 9.708 0.645103 10.1222 0.645103ZM15.688 6.878C17.3087 6.878 18.622 8.19108 18.622 9.813V14.697C18.622 16.3128 17.3128 17.622 15.697 17.622H4.55701C2.93622 17.622 1.62201 16.3078 1.62201 14.687V9.802C1.62201 8.18748 2.93196 6.878 4.54701 6.878H5.48901C5.90322 6.878 6.23901 6.54222 6.23901 6.128C6.23901 5.71379 5.90322 5.378 5.48901 5.378H4.54701C2.10406 5.378 0.122009 7.35852 0.122009 9.802V14.687C0.122009 17.1362 2.1078 19.122 4.55701 19.122H15.697C18.1412 19.122 20.122 17.1412 20.122 14.697V9.813C20.122 7.36292 18.1374 5.378 15.688 5.378H14.755C14.3408 5.378 14.005 5.71379 14.005 6.128C14.005 6.54222 14.3408 6.878 14.755 6.878H15.688Z" fill="#F5F5F5"/>
</svg>
