<svg width="60" height="60" viewBox="0 0 60 60" fill="none" xmlns="http://www.w3.org/2000/svg">
<circle cx="30" cy="30" r="30" fill="#D5EFAE"/>
<circle cx="29.5" cy="30.5" r="18.5" fill="#1B1B1B"/>
<path d="M29.1338 23.2305L26.2248 26.1985C25.9248 26.5052 25.9248 26.9988 26.2268 27.3046C26.5288 27.6093 27.0158 27.6083 27.3158 27.3025L28.9088 25.6774L28.9088 35.9858C28.9088 36.4175 29.2538 36.7679 29.6798 36.7679C30.1048 36.7679 30.4488 36.4175 30.4488 35.9858L30.4488 25.6774L32.0428 27.3025C32.3428 27.6083 32.8298 27.6093 33.1318 27.3046C33.2828 27.1512 33.3588 26.9511 33.3588 26.75C33.3588 26.5509 33.2828 26.3508 33.1338 26.1985L30.2248 23.2305C30.0798 23.0833 29.8838 23 29.6798 23C29.4748 23 29.2788 23.0833 29.1338 23.2305Z" fill="#F5F5F5"/>
</svg>
